<mxGraphModel dx="1478" dy="1714" grid="1" gridSize="10" guides="1" tooltips="1" connect="1" arrows="1" fold="1" page="0" pageScale="1" pageWidth="827" pageHeight="1169" math="0" shadow="0"><root><mxCell id="0"/><mxCell id="1" parent="0"/><mxCell id="154" value="" style="whiteSpace=wrap;html=1;strokeColor=none;" parent="1" vertex="1"><mxGeometry x="-790" y="-580" width="760" height="370" as="geometry"/></mxCell><mxCell id="194" value="类型信息" style="shape=document;whiteSpace=wrap;html=1;boundedLbl=1;" parent="1" vertex="1"><mxGeometry x="-730" y="-520" width="70" height="50" as="geometry"/></mxCell><mxCell id="201" style="edgeStyle=none;html=1;exitX=1;exitY=0.5;exitDx=0;exitDy=0;entryX=0;entryY=0.5;entryDx=0;entryDy=0;shape=flexArrow;strokeColor=#0000FF;" parent="1" source="195" target="196" edge="1"><mxGeometry relative="1" as="geometry"/></mxCell><mxCell id="195" value="运行时常量池" style="shape=document;whiteSpace=wrap;html=1;boundedLbl=1;" parent="1" vertex="1"><mxGeometry x="-620" y="-520" width="90" height="50" as="geometry"/></mxCell><mxCell id="202" style="edgeStyle=none;shape=flexArrow;html=1;exitX=1;exitY=0.5;exitDx=0;exitDy=0;entryX=0;entryY=0.5;entryDx=0;entryDy=0;strokeColor=#0000FF;" parent="1" source="196" target="197" edge="1"><mxGeometry relative="1" as="geometry"/></mxCell><mxCell id="196" value="静态变量" style="shape=document;whiteSpace=wrap;html=1;boundedLbl=1;" parent="1" vertex="1"><mxGeometry x="-490" y="-520" width="70" height="50" as="geometry"/></mxCell><mxCell id="203" style="edgeStyle=none;shape=flexArrow;html=1;exitX=1;exitY=0.5;exitDx=0;exitDy=0;entryX=0;entryY=0.5;entryDx=0;entryDy=0;strokeColor=#0000FF;" parent="1" source="197" target="198" edge="1"><mxGeometry relative="1" as="geometry"/></mxCell><mxCell id="197" value="JIT代码缓存" style="shape=document;whiteSpace=wrap;html=1;boundedLbl=1;" parent="1" vertex="1"><mxGeometry x="-380" y="-520" width="80" height="50" as="geometry"/></mxCell><mxCell id="204" style="edgeStyle=none;shape=flexArrow;html=1;exitX=1;exitY=0.5;exitDx=0;exitDy=0;entryX=0;entryY=0.5;entryDx=0;entryDy=0;strokeColor=#0000FF;" parent="1" source="198" target="199" edge="1"><mxGeometry relative="1" as="geometry"/></mxCell><mxCell id="198" value="域信息" style="shape=document;whiteSpace=wrap;html=1;boundedLbl=1;" parent="1" vertex="1"><mxGeometry x="-260" y="-520" width="70" height="50" as="geometry"/></mxCell><mxCell id="199" value="方法信息" style="shape=document;whiteSpace=wrap;html=1;boundedLbl=1;" parent="1" vertex="1"><mxGeometry x="-140" y="-520" width="70" height="50" as="geometry"/></mxCell><mxCell id="200" value="" style="shape=flexArrow;endArrow=classic;html=1;exitX=1;exitY=0.5;exitDx=0;exitDy=0;entryX=0;entryY=0.5;entryDx=0;entryDy=0;strokeColor=#0000CC;" parent="1" source="194" target="195" edge="1"><mxGeometry width="50" height="50" relative="1" as="geometry"><mxPoint x="-450" y="-300" as="sourcePoint"/><mxPoint x="-400" y="-350" as="targetPoint"/></mxGeometry></mxCell></root></mxGraphModel>